<?xml version="1.0" encoding="UTF-8"?>
<svg id="Capa_1" data-name="Capa 1" xmlns="http://www.w3.org/2000/svg" viewBox="0 0 1080 1080">
  <defs>
    <style>
      .cls-1 {
        fill: #fde00a;
      }

      .cls-2 {
        fill: #7b50de;
      }

      .cls-3 {
        fill: #f56e03;
      }

      .cls-4 {
        fill: #ff6fcd;
      }

      .cls-5 {
        fill: #59c9f7;
      }
    </style>
  </defs>
  <rect class="cls-1" x="97.17" y="158.57" width="881.08" height="771.58"/>
  <rect class="cls-5" x="173.79" y="352.12" width="740.51" height="492.8"/>
  <path class="cls-2" d="M984.12,937.02l-888,.27-.24-782.58,888-.27.24,782.58ZM113.21,920.2l853.82-.26-.23-748.4-853.82.26.23,748.4Z"/>
  <path class="cls-2" d="M921.16,860.65l-756.98.23-.16-512.92,756.98-.23.16,512.92ZM181.26,843.79l722.8-.22-.15-478.74-722.8.22.15,478.74Z"/>
  <path class="cls-4" d="M921.97,208.11l-101.52.03.03,96.96,101.52-.03-.03-96.96ZM894.81,268.05l-11.62,12.54-11.57-10.76-9.28,9.97-12.54-11.62,9.34-10.03-11.51-10.71,11.68-12.48,11.45,10.71,12.19-13.05,12.48,11.67-12.13,13.05,11.51,10.71Z"/>
  <polygon class="cls-3" points="561.31 239.42 561.31 284.78 164 284.88 164 239.55 561.31 239.42"/>
  <path d="M903.54,672.36c-17.5-4.36-32.38-8.66-44.29-12.36-14.98-4.65-23.94-7.92-26.12-8.73-23.79-8.8-42.88-18.23-58.44-26.37-48.19-25.22-113.79-64.65-213.07-141.73-129.24-100.34-164.81-140.48-260.15-229.21-31.17-31.3-46.74-46.63-57.8-50.8-24.87-8.8-28.43,33.67-28.5,57.06.27,36.18,11.34,122.71,98.79,209.38-24.77-10.22-56.01-32.25-74.35-46.74-17.46-12.93-25.79-21.12-37.23-18.24-.97.34-2.62,1.07-4.16,2.6-2.16,2.14-2.85,4.58-3.08,5.63-5.75,36.45,25.38,115.77,102.85,176.56-14.25-3.32-30.22-7.92-45.42-14.28-4.74-1.86-16.11-6.63-22.57-3.45-8.94,3.89-6.19,14.15-4.77,18.99.14.64.27,1.08.37,1.46l.1.3.1.37c1.35,4.26,31.3,94.08,137.4,113.61-16.65,7.28-18.61,11.2-19.7,13.3-8.97,23.96,40,53.5,97.4,55.33-15.53,39.12,54.42,39.39,83.59,38.28-13.74,48.9,63.35,49.71,99.46,38.75-1.42,22,23.83,28.87,46.06,29.07,16.45.1,32.83-3.49,47.51-10.29,2.37,12.72,20.2,15.06,29.88,15.03,8.22.03,29.48-1.29,49.17-14.59,11.51-7.38,24.87-16.04,35.16-23.89,17.94-.02,36.13.11,54.57.4,5.78.09,11.5.22,17.22.33v-175.75Z"/>
</svg>